<?xml version="1.0" encoding="UTF-8" standalone="no"?>
<!-- Uploaded to: SVG Repo, www.svgrepo.com, Generator: SVG Repo Mixer Tools -->

<svg
   version="1.1"
   id="Capa_1"
   viewBox="0 0 488 488"
   xml:space="preserve"
   xmlns="http://www.w3.org/2000/svg"
   xmlns:svg="http://www.w3.org/2000/svg"><defs
   id="defs123" />
<g
   id="g123">
	
	
	
	
	
	
	
	
	
	
	
	
	
	
	
	
	
	
	
	
	
	
	
	
	
	
	
	
	
	
	
	
	
	
	
	
	
	
	
	
	
	
	
	
	
	
	
	
	
	
	
	
	
	
	
	
	
	
	
	
	
	
	
	
	
	
	
	
	
	
	
	
	
	
	
	
	
	
	
	
	
	
	
	
	
	
	<g
   id="g124"
   transform="matrix(1.5250048,0,0,1.5250048,-109.80035,-128.1004)"><path
     style="fill:#48bbee"
     d="m 259.609,86.381 c 0.549,0.096 1.097,0.195 1.644,0.297 -0.548,-0.102 -1.095,-0.202 -1.644,-0.297 z"
     id="path45" /><path
     style="fill:#48bbee"
     d="m 284.785,92.924 c 12.796,4.475 24.851,10.529 35.933,17.927 -0.013,0.001 -0.026,0.002 -0.039,0.002 11.163,7.45 21.338,16.264 30.281,26.209 l 0.012,-0.022 c 2.773,3.083 5.413,6.286 7.941,9.579 0,0 10e-4,0.001 10e-4,0.001 1.891,2.463 3.711,4.982 5.459,7.555 0.135,0.199 0.27,0.399 0.405,0.598 1.622,2.412 3.18,4.869 4.673,7.371 0.223,0.373 0.444,0.748 0.663,1.123 1.135,1.938 2.245,3.893 3.3,5.883 l -0.008,0.026 c 8.987,16.955 15.022,35.718 17.404,55.608 -0.377,0.047 -0.764,0.054 -1.139,-0.06 l -51.38,-16.328 2.396,10.651 c 0.505,2.232 1.88,4.078 3.87,5.206 1.99,1.125 4.281,1.346 6.448,0.63 l 5.932,-1.964 c 0.818,-0.273 1.703,-0.138 2.401,0.37 0.693,0.5 1.104,1.305 1.104,2.161 v 14.49 0.01 c 0,5.911 -2.802,11.472 -7.552,14.99 l -15.258,12.27 c -2.35,1.89 -5.799,1.457 -7.609,-0.956 l -24.692,-32.922 c -2.604,-3.472 -6.204,-6.066 -10.32,-7.439 l -9.678,-3.226 40.359,52.414 c 3.625,3.018 8.297,4.617 13.224,4.276 l 7.573,-0.518 c 0.818,-0.036 1.62,0.268 2.172,0.883 0.547,0.615 0.781,1.445 0.635,2.255 l -3.115,17.167 c -0.104,0.56 -0.38,1.073 -0.797,1.464 l -31.25,29.443 -23.349,59.021 c -0.302,0.768 -0.948,1.354 -1.745,1.581 -2.943,0.846 -5.938,1.263 -8.911,1.263 -5.422,0 -10.786,-1.388 -15.651,-4.117 -7.484,-4.195 -12.859,-11.044 -15.135,-19.289 -1.802,-6.531 -2.677,-10.883 -2.677,-13.305 v -22.26 l -3.604,-1.385 c -8.302,-3.193 -15.641,-8.536 -21.229,-15.453 l -8.25,-10.219 -35.448,6.328 c -1.525,0.276 -3.054,0.383 -4.57,0.361 10.237,37.797 33.968,70.045 65.717,91.241 -2.416,0.108 -4.84,0.184 -7.283,0.184 88.366,0 160,-71.634 160,-160 C 392,174.132 347.212,114.734 284.785,92.924 Z"
     id="path46" /><path
     style="fill:#48bbee"
     d="m 209.536,209.133 c 5.714,0 11.307,1.669 16.156,4.878 l 13.694,9.066 c 2.737,1.812 6.157,2.263 9.27,1.222 l 24.634,-8.236 4.12,-3.721 c 2.469,-2.229 3.875,-5.417 3.865,-8.745 -0.016,-2.849 -1.068,-5.586 -2.927,-7.701 l -26.029,7.723 c -0.899,0.267 -1.872,0.043 -2.564,-0.591 l -17.484,-16.002 c -1.161,-1.065 -2.453,-0.651 -2.818,-0.498 -0.365,0.151 -1.573,0.768 -1.646,2.336 l 1.505,11.873 c 0.135,1.099 -0.422,2.169 -1.406,2.685 -0.979,0.516 -2.182,0.372 -3.01,-0.365 l -14.516,-12.87 c -4.99,-2.635 -11.109,-1.849 -15.292,2.023 l -4.641,11.657 c -0.729,1.83 -1.95,3.423 -3.528,4.601 l -7.368,5.502 24.849,-4.385 c 1.709,-0.301 3.428,-0.452 5.136,-0.452 z"
     id="path47" /><path
     style="fill:#48bbee"
     d="m 239.529,84.181 c 0.367,0.017 0.735,0.032 1.101,0.052 -0.366,-0.019 -0.734,-0.035 -1.101,-0.052 z"
     id="path48" /><path
     style="fill:#48bbee"
     d="m 308.786,178.992 c 1.089,0 2.188,-0.333 3.135,-1.023 0.283,-0.207 0.537,-0.439 0.767,-0.687 0.681,-0.745 1.109,-1.658 1.295,-2.615 l 0.021,-0.006 c 0.269,-1.401 -0.008,-2.902 -0.916,-4.145 l -13.651,-18.724 c -1.734,-2.375 -5.068,-2.904 -7.448,-1.167 -2.38,1.734 -2.906,5.073 -1.167,7.453 l 13.651,18.724 c 1.042,1.43 2.667,2.19 4.313,2.19 z"
     id="path49" /><path
     style="fill:#48bbee"
     d="m 266.659,87.776 c 1.03,0.228 2.057,0.465 3.08,0.713 -1.023,-0.248 -2.05,-0.485 -3.08,-0.713 z"
     id="path50" /><path
     style="fill:#48bbee"
     d="m 263.057,87.023 c 0.574,0.113 1.149,0.224 1.721,0.344 -0.572,-0.12 -1.147,-0.231 -1.721,-0.344 z"
     id="path51" /><path
     style="fill:#48bbee"
     d="m 235.705,84.047 c 0.369,0.008 0.737,0.02 1.105,0.031 -0.368,-0.011 -0.736,-0.023 -1.105,-0.031 z"
     id="path52" /><path
     style="fill:#48bbee"
     d="m 282.047,91.994 c 0.867,0.286 1.732,0.578 2.592,0.878 -0.861,-0.299 -1.725,-0.592 -2.592,-0.878 z"
     id="path53" /><path
     style="fill:#48bbee"
     d="m 244.229,84.461 c 0.179,0.013 0.356,0.031 0.535,0.045 -0.179,-0.013 -0.356,-0.031 -0.535,-0.045 z"
     id="path54" /><path
     style="fill:#48bbee"
     d="m 274.153,89.624 c 2.529,0.69 5.034,1.438 7.512,2.247 -2.478,-0.809 -4.983,-1.558 -7.512,-2.247 z"
     id="path55" /><path
     style="fill:#48bbee"
     d="m 271.014,88.8 c 0.704,0.177 1.405,0.358 2.105,0.544 -0.7,-0.186 -1.401,-0.368 -2.105,-0.544 z"
     id="path56" /><path
     style="fill:#48bbee"
     d="m 279.717,184.113 c 0.014,-0.01 0.029,-0.017 0.043,-0.027 l 8.302,-6.138 c 0.343,-0.254 0.559,-0.597 0.822,-0.91 l 0.149,-0.05 c 1.483,-1.844 1.619,-4.51 0.144,-6.502 -1.74,-2.365 -5.089,-2.87 -7.458,-1.117 l -6.885,5.094 h -13.057 c -2.948,0 -5.333,2.388 -5.333,5.333 0,2.945 2.385,5.333 5.333,5.333 h 2.833 11.979 c 1.123,0.001 2.22,-0.358 3.128,-1.016 z"
     id="path57" /><path
     style="fill:#48bbee"
     d="m 251.507,85.186 c 0.437,0.053 0.874,0.104 1.31,0.161 -0.436,-0.057 -0.873,-0.108 -1.31,-0.161 z"
     id="path58" /><path
     style="fill:#48bbee"
     d="m 256.144,85.813 c 0.418,0.063 0.834,0.135 1.251,0.201 -0.418,-0.066 -0.833,-0.138 -1.251,-0.201 z"
     id="path59" /><path
     style="fill:#48bbee"
     d="m 247.832,84.779 c 0.431,0.042 0.861,0.088 1.291,0.134 -0.43,-0.046 -0.86,-0.091 -1.291,-0.134 z"
     id="path60" /><path
     style="fill:#0e94d7"
     d="m 173.565,312.574 c -2.544,-0.037 -5.049,-0.469 -7.422,-1.284 -2.943,-1.009 -5.672,-2.598 -8.037,-4.672 -0.138,-0.12 -0.276,-0.24 -0.411,-0.363 -0.218,-0.2 -0.431,-0.406 -0.642,-0.614 -0.19,-0.188 -0.377,-0.379 -0.562,-0.574 -0.171,-0.181 -0.341,-0.362 -0.507,-0.548 -0.225,-0.253 -0.443,-0.515 -0.658,-0.779 -0.123,-0.151 -0.249,-0.297 -0.369,-0.452 -0.333,-0.429 -0.656,-0.869 -0.962,-1.325 l -3.88,-5.779 c -5.557,-8.273 -7.725,-18.156 -6.413,-27.721 0.011,-0.078 0.015,-0.156 0.026,-0.234 0.067,-0.466 0.163,-0.929 0.247,-1.394 0.074,-0.411 0.132,-0.823 0.219,-1.232 0.042,-0.198 0.101,-0.392 0.146,-0.59 0.152,-0.667 0.305,-1.333 0.492,-1.993 0.001,-0.005 0.003,-0.01 0.005,-0.015 0.003,-0.011 0.008,-0.022 0.011,-0.034 0.029,-0.103 0.068,-0.203 0.098,-0.306 0.469,-1.602 1.03,-3.184 1.705,-4.734 0.036,-0.083 0.081,-0.164 0.117,-0.247 0.328,-0.739 0.671,-1.473 1.046,-2.197 l 8.172,-15.763 -0.12,-5.497 c -0.188,-8.498 5.229,-15.844 13.161,-18.258 l -7.245,-2.016 c -5.521,-1.537 -9.432,-6.412 -9.74,-12.133 l -0.385,-7.128 c -0.38,-7.086 4.849,-13.224 11.906,-13.971 l 7.104,-0.755 v -12.604 c 0,-0.836 0.391,-1.625 1.063,-2.127 l 21.203,-16.003 c 1.448,-1.091 2.635,-2.44 3.531,-4.013 l 3.651,-6.367 -23.703,4.651 c -0.781,0.148 -1.594,-0.052 -2.208,-0.557 -0.62,-0.508 -0.974,-1.263 -0.974,-2.06 v -7.31 c 0,-7.292 3.255,-14.099 8.938,-18.68 l 33.396,-26.935 c 0.854,-0.69 2.047,-0.784 3.005,-0.234 l 23.38,13.466 c 0.625,0.359 1.349,0.445 2.052,0.258 0.693,-0.195 1.271,-0.651 1.615,-1.284 l 8.925,-14.539 v 0 l 0.011,-0.018 c 24.21,3.417 46.671,12.256 66.128,25.24 0.013,0 0.026,-10e-4 0.039,-0.002 -11.081,-7.398 -23.136,-13.452 -35.933,-17.927 -0.049,-0.017 -0.097,-0.034 -0.146,-0.051 -0.861,-0.3 -1.725,-0.593 -2.592,-0.878 -0.127,-0.042 -0.255,-0.082 -0.382,-0.124 -2.478,-0.809 -4.983,-1.557 -7.512,-2.247 -0.344,-0.094 -0.688,-0.188 -1.034,-0.28 -0.7,-0.186 -1.401,-0.367 -2.105,-0.544 -0.424,-0.106 -0.85,-0.208 -1.276,-0.311 -1.023,-0.248 -2.049,-0.485 -3.08,-0.713 -0.626,-0.139 -1.252,-0.279 -1.881,-0.41 -0.572,-0.119 -1.147,-0.23 -1.721,-0.344 -0.6,-0.118 -1.201,-0.234 -1.804,-0.346 -0.547,-0.101 -1.095,-0.201 -1.644,-0.297 -0.736,-0.128 -1.475,-0.249 -2.214,-0.367 -0.417,-0.067 -0.833,-0.138 -1.251,-0.201 -1.105,-0.167 -2.215,-0.321 -3.327,-0.466 -0.436,-0.057 -0.873,-0.108 -1.31,-0.161 -0.793,-0.096 -1.588,-0.188 -2.384,-0.272 -0.43,-0.046 -0.86,-0.092 -1.291,-0.134 -1.02,-0.1 -2.042,-0.191 -3.068,-0.272 -0.179,-0.014 -0.356,-0.032 -0.535,-0.045 -1.196,-0.091 -2.396,-0.164 -3.599,-0.228 -0.366,-0.02 -0.734,-0.035 -1.101,-0.052 -0.904,-0.042 -1.811,-0.076 -2.719,-0.103 -0.368,-0.011 -0.736,-0.023 -1.105,-0.031 C 234.473,84.019 233.239,84 232,84 143.634,84 72,155.635 72,244 c 0,88.365 71.634,160 160,160 2.442,0 4.867,-0.076 7.283,-0.184 -31.75,-21.197 -55.48,-53.445 -65.718,-91.242 z M 147.453,142.63 c 1.547,-2.513 4.828,-3.302 7.339,-1.752 l 8.526,5.234 c 1.938,1.19 2.906,3.479 2.417,5.7 l -3.771,16.977 c -0.552,2.487 -2.76,4.177 -5.203,4.177 -0.385,0 -0.771,-0.039 -1.161,-0.127 -2.875,-0.638 -4.688,-3.487 -4.052,-6.362 l 2.948,-13.266 -5.286,-3.245 c -2.512,-1.539 -3.299,-4.825 -1.757,-7.336 z"
     id="path61" /><path
     style="fill:#00e389"
     d="m 312.688,177.282 c -0.23,0.248 -0.483,0.48 -0.767,0.687 0.285,-0.207 0.54,-0.438 0.767,-0.687 z"
     id="path62" /><path
     style="fill:#00e389"
     d="m 292.249,276.293 -0.585,0.877 c -3.957,5.933 -10.617,9.497 -17.748,9.497 h -62.499 c -7.133,0 -13.794,3.565 -17.75,9.5 l -10.045,15.068 -5.48,0.978 c -4.099,0.732 -8.218,0.374 -11.998,-0.922 2.373,0.816 4.878,1.247 7.422,1.284 1.516,0.022 3.045,-0.085 4.57,-0.361 l 35.448,-6.328 8.25,10.219 c 5.589,6.917 12.927,12.26 21.229,15.453 l 3.604,1.385 v 22.26 c 0,2.422 0.875,6.773 2.677,13.305 2.276,8.245 7.651,15.094 15.135,19.289 4.865,2.729 10.229,4.117 15.651,4.117 2.974,0 5.969,-0.417 8.911,-1.263 0.797,-0.227 1.443,-0.813 1.745,-1.581 l 23.349,-59.021 31.25,-29.443 c 0.417,-0.391 0.693,-0.904 0.797,-1.464 l 3.115,-17.167 c 0.146,-0.81 -0.089,-1.641 -0.635,-2.255 -0.552,-0.615 -1.354,-0.919 -2.172,-0.883 l -7.573,0.518 c -4.927,0.341 -9.599,-1.258 -13.224,-4.276 l -23.002,-3.419 c -4.084,-0.606 -8.151,1.198 -10.442,4.633 z"
     id="path63" /><path
     style="fill:#00e389"
     d="m 276.591,185.13 c 1.124,0 2.217,-0.358 3.126,-1.018 -0.909,0.658 -2.005,1.018 -3.129,1.018 z"
     id="path64" /><path
     style="fill:#00e389"
     d="m 368.075,206.248 3.395,12.691 -33.178,-10.544 51.38,16.328 c 0.375,0.114 0.762,0.107 1.139,0.06 -2.382,-19.889 -8.417,-38.652 -17.404,-55.608 l -5.016,16.665 c -1.999,6.642 -2.108,13.709 -0.316,20.408 z"
     id="path65" /><path
     style="fill:#00e389"
     d="m 358.913,146.619 c 0,0 10e-4,0.001 10e-4,0.001 0,0 0,-0.001 -10e-4,-0.001 z"
     id="path66" /><path
     style="fill:#00e389"
     d="m 364.373,154.176 c 0.135,0.199 0.27,0.398 0.405,0.598 -0.135,-0.2 -0.269,-0.399 -0.405,-0.598 z"
     id="path67" /><path
     style="fill:#00e389"
     d="m 369.451,162.145 c 0.223,0.373 0.444,0.748 0.663,1.123 -0.22,-0.375 -0.441,-0.749 -0.663,-1.123 z"
     id="path68" /><path
     style="fill:#00e389"
     d="m 239.387,223.076 -13.694,-9.066 18.031,11.938 29.568,-9.885 -24.634,8.236 c -3.115,1.041 -6.534,0.59 -9.271,-1.223 z"
     id="path69" /><path
     style="fill:#00e389"
     d="m 254.54,85.631 c 0.092,0.013 0.187,0.018 0.279,0.031 8.728,1.247 17.227,3.199 25.44,5.795 0.595,0.188 1.17,0.42 1.762,0.615 3.367,1.108 6.693,2.307 9.957,3.628 1.09,0.441 2.151,0.934 3.229,1.398 2.729,1.176 5.431,2.403 8.079,3.724 1.221,0.609 2.42,1.252 3.623,1.891 2.457,1.305 4.879,2.666 7.257,4.093 1.213,0.728 2.417,1.468 3.608,2.227 0.921,0.587 1.802,1.228 2.71,1.833 -65.225,3.019 -120.249,45.078 -142.232,103.351 l 1.301,-0.247 7.368,-5.502 c 1.578,-1.178 2.799,-2.771 3.528,-4.601 l 4.641,-11.657 c 4.182,-3.872 10.302,-4.659 15.292,-2.023 l 14.516,12.87 c 0.828,0.737 2.031,0.88 3.01,0.365 0.984,-0.516 1.542,-1.586 1.406,-2.685 l -1.505,-11.873 c 0.073,-1.568 1.281,-2.185 1.646,-2.336 0.365,-0.154 1.656,-0.568 2.818,0.498 l 17.484,16.002 c 0.692,0.633 1.665,0.857 2.564,0.591 l 26.029,-7.723 -14.35,4.257 -1.353,-2.407 c -2.336,-4.154 -1.524,-9.367 1.963,-12.616 h -2.833 c -2.948,0 -5.333,-2.388 -5.333,-5.333 0,-2.945 2.385,-5.333 5.333,-5.333 h 13.057 l 6.885,-5.094 c 2.37,-1.753 5.719,-1.248 7.458,1.117 1.475,1.992 1.339,4.658 -0.144,6.502 l 6.966,-2.322 h 6.917 l 1.557,2.135 -13.651,-18.724 c -1.74,-2.38 -1.214,-5.719 1.167,-7.453 2.38,-1.737 5.714,-1.208 7.448,1.167 l 13.651,18.724 c 0.909,1.243 1.185,2.744 0.916,4.145 l 10.61,-2.925 c 5.572,-1.536 10.283,-5.268 13.054,-10.34 l 13.291,-24.334 C 342.015,127.117 331.841,118.303 320.678,110.853 301.222,97.868 278.761,89.03 254.55,85.613 Z"
     id="path70" /><path
     style="fill:#00bbbb"
     d="m 149.208,149.966 5.286,3.245 -2.948,13.266 c -0.635,2.875 1.177,5.724 4.052,6.362 0.391,0.088 0.776,0.127 1.161,0.127 2.443,0 4.651,-1.69 5.203,-4.177 l 3.771,-16.977 c 0.49,-2.221 -0.479,-4.51 -2.417,-5.7 l -8.526,-5.234 c -2.51,-1.55 -5.792,-0.76 -7.339,1.752 -1.54,2.511 -0.753,5.797 1.757,7.336 z"
     id="path71" /><path
     style="fill:#00bbbb"
     d="m 178.251,214.219 c 21.983,-58.273 77.007,-100.333 142.232,-103.351 -0.908,-0.605 -1.789,-1.246 -2.71,-1.833 -1.192,-0.759 -2.396,-1.499 -3.608,-2.227 -2.378,-1.427 -4.8,-2.788 -7.257,-4.093 -1.202,-0.639 -2.402,-1.282 -3.623,-1.891 -2.648,-1.321 -5.349,-2.548 -8.079,-3.724 -1.077,-0.465 -2.139,-0.957 -3.229,-1.398 -3.264,-1.321 -6.59,-2.52 -9.957,-3.628 -0.592,-0.195 -1.167,-0.427 -1.762,-0.615 -8.213,-2.596 -16.712,-4.548 -25.44,-5.795 -0.092,-0.013 -0.187,-0.018 -0.279,-0.031 v 0 l -8.925,14.539 c -0.344,0.633 -0.922,1.089 -1.615,1.284 -0.703,0.188 -1.427,0.102 -2.052,-0.258 l -23.38,-13.466 c -0.958,-0.55 -2.151,-0.456 -3.005,0.234 l -33.396,26.935 c -5.682,4.581 -8.938,11.388 -8.938,18.68 v 7.31 c 0,0.797 0.354,1.552 0.974,2.06 0.615,0.505 1.427,0.706 2.208,0.557 l 23.703,-4.651 -3.651,6.367 c -0.896,1.573 -2.083,2.922 -3.531,4.013 l -21.203,16.003 c -0.672,0.502 -1.063,1.292 -1.063,2.127 v 12.604 l -7.104,0.755 c -7.057,0.748 -12.286,6.885 -11.906,13.971 l 0.385,7.128 c 0.307,5.721 4.219,10.596 9.74,12.133 l 7.245,2.016 z"
     id="path72" /><path
     style="fill:#00bbbb"
     d="m 144.193,265.604 c 0.042,-0.198 0.101,-0.392 0.146,-0.59 -0.046,0.198 -0.104,0.392 -0.146,0.59 z"
     id="path73" /><path
     style="fill:#00bbbb"
     d="m 146.649,257.933 c 0.036,-0.083 0.081,-0.164 0.117,-0.247 -0.037,0.083 -0.081,0.164 -0.117,0.247 z"
     id="path74" /><path
     style="fill:#00bbbb"
     d="m 143.727,268.23 c 0.067,-0.466 0.163,-0.929 0.247,-1.394 -0.083,0.465 -0.18,0.927 -0.247,1.394 z"
     id="path75" /><path
     style="fill:#00bbbb"
     d="m 144.835,263.006 c 0.003,-0.011 0.008,-0.022 0.011,-0.034 -0.003,0.012 -0.008,0.023 -0.011,0.034 z"
     id="path76" /><path
     style="fill:#00bbbb"
     d="m 146.302,289.037 c -0.938,-2.292 -1.64,-4.656 -2.136,-7.056 -0.068,-0.331 -0.136,-0.661 -0.196,-0.993 -0.274,-1.523 -0.464,-3.058 -0.561,-4.6 -0.06,-0.958 -0.093,-1.918 -0.083,-2.878 0.01,-1.098 0.082,-2.194 0.183,-3.29 0.054,-0.586 0.112,-1.173 0.192,-1.757 -1.312,9.565 0.856,19.448 6.413,27.721 -0.509,-0.758 -0.99,-1.529 -1.442,-2.313 -0.903,-1.566 -1.694,-3.182 -2.37,-4.834 z"
     id="path77" /><path
     style="fill:#ffedb9"
     d="m 324.615,171.736 -10.61,2.925 -0.021,0.006 c -0.186,0.957 -0.615,1.87 -1.295,2.615 -0.227,0.249 -0.483,0.479 -0.767,0.687 -0.948,0.69 -2.047,1.023 -3.135,1.023 -1.646,0 -3.271,-0.76 -4.313,-2.19 l -1.557,-2.135 H 296 l -6.966,2.322 -0.149,0.05 c -0.263,0.312 -0.479,0.656 -0.822,0.91 l -8.302,6.138 c -0.014,0.01 -0.029,0.017 -0.043,0.027 -0.909,0.659 -2.002,1.018 -3.126,1.018 h -0.003 -11.979 c -3.487,3.249 -4.298,8.462 -1.963,12.616 l 1.353,2.407 14.349,-4.258 c 1.859,2.115 2.911,4.852 2.927,7.701 0.01,3.328 -1.396,6.516 -3.865,8.745 l -4.12,3.721 -29.568,9.885 -18.031,-11.938 c -4.849,-3.208 -10.443,-4.878 -16.156,-4.878 -1.708,0 -3.427,0.151 -5.135,0.453 l -24.849,4.385 -1.301,0.247 -9.225,1.753 9.268,-1.761 C 171.666,231.771 168,250.785 168,270.667 c 0,14.493 1.969,28.516 5.582,41.865 -5.714,-0.082 -11.202,-2.184 -15.476,-5.913 2.365,2.074 5.094,3.663 8.037,4.672 3.781,1.296 7.9,1.654 11.998,0.922 l 5.48,-0.978 10.045,-15.068 c 3.957,-5.935 10.617,-9.5 17.75,-9.5 h 62.499 c 7.132,0 13.791,-3.563 17.748,-9.497 l 0.585,-0.877 c 2.291,-3.435 6.358,-5.239 10.442,-4.632 l 23.002,3.419 -40.359,-52.414 9.678,3.226 c 4.117,1.372 7.717,3.967 10.32,7.439 l 24.692,32.922 c 1.81,2.413 5.258,2.846 7.609,0.956 l 15.258,-12.27 c 4.75,-3.518 7.552,-9.079 7.552,-14.99 v -0.01 -14.49 c 0,-0.857 -0.411,-1.661 -1.104,-2.161 -0.698,-0.508 -1.583,-0.643 -2.401,-0.37 l -5.932,1.964 c -2.167,0.716 -4.458,0.495 -6.448,-0.63 -1.99,-1.128 -3.365,-2.974 -3.87,-5.206 l -2.396,-10.651 33.178,10.544 -3.395,-12.691 c -1.792,-6.7 -1.683,-13.766 0.316,-20.407 l 5.016,-16.665 0.008,-0.026 c -1.055,-1.989 -2.165,-3.944 -3.3,-5.883 -0.22,-0.375 -0.441,-0.75 -0.663,-1.123 -1.492,-2.502 -3.051,-4.96 -4.673,-7.371 -0.134,-0.2 -0.27,-0.399 -0.405,-0.598 -1.748,-2.573 -3.568,-5.092 -5.459,-7.555 l -10e-4,-0.001 c -2.528,-3.293 -5.168,-6.496 -7.941,-9.579 l -0.012,0.022 -13.291,24.334 c -2.771,5.073 -7.482,8.804 -13.054,10.34 z"
     id="path78" /><path
     style="fill:#ffedb9"
     d="m 155.984,304.519 c 0.166,0.187 0.336,0.367 0.507,0.548 -0.171,-0.18 -0.341,-0.362 -0.507,-0.548 z"
     id="path79" /><path
     style="fill:#ffedb9"
     d="m 154.957,303.288 c 0.12,0.154 0.246,0.301 0.369,0.452 -0.123,-0.151 -0.249,-0.298 -0.369,-0.452 z"
     id="path80" /><path
     style="fill:#ffedb9"
     d="m 157.052,305.641 c 0.211,0.209 0.424,0.414 0.642,0.614 -0.218,-0.2 -0.431,-0.406 -0.642,-0.614 z"
     id="path81" /><path
     style="fill:#ffedb9"
     d="m 143.327,273.51 c 0.01,-1.098 0.082,-2.194 0.183,-3.29 -0.101,1.096 -0.173,2.192 -0.183,3.29 z"
     id="path82" /><path
     style="fill:#ffedb9"
     d="m 144.943,262.667 c -0.03,0.103 -0.069,0.203 -0.098,0.306 -0.003,0.011 -0.008,0.022 -0.011,0.034 -0.001,0.005 -0.003,0.01 -0.005,0.015 0.035,-0.12 0.08,-0.237 0.114,-0.355 z"
     id="path83" /><path
     style="fill:#ffedb9"
     d="m 143.41,276.388 c 0.096,1.542 0.286,3.077 0.561,4.6 -0.275,-1.522 -0.465,-3.058 -0.561,-4.6 z"
     id="path84" /><path
     style="fill:#ffedb9"
     d="m 144.167,281.982 c 0.495,2.4 1.198,4.764 2.136,7.056 -0.939,-2.292 -1.641,-4.656 -2.136,-7.056 z"
     id="path85" /><path
     style="fill:#ffedb9"
     d="m 146.302,289.037 c 0.676,1.652 1.466,3.267 2.371,4.834 -0.904,-1.566 -1.695,-3.182 -2.371,-4.834 z"
     id="path86" /><path
     style="fill:#ffd586"
     d="M 173.582,312.531 C 169.97,299.183 168,285.159 168,270.666 c 0,-19.881 3.666,-38.895 10.294,-56.456 l -9.268,1.761 c -7.932,2.414 -13.349,9.76 -13.161,18.258 l 0.12,5.497 -8.172,15.763 c -0.375,0.723 -0.718,1.458 -1.046,2.197 -0.037,0.083 -0.081,0.164 -0.117,0.247 -0.675,1.55 -1.237,3.132 -1.705,4.734 -0.035,0.119 -0.08,0.235 -0.113,0.354 -0.187,0.66 -0.34,1.327 -0.492,1.993 -0.045,0.197 -0.104,0.392 -0.146,0.59 -0.087,0.409 -0.145,0.821 -0.219,1.232 -0.083,0.464 -0.18,0.927 -0.247,1.394 -0.011,0.078 -0.015,0.156 -0.026,0.234 -0.08,0.584 -0.138,1.17 -0.192,1.757 -0.101,1.095 -0.173,2.192 -0.183,3.29 -0.009,0.96 0.023,1.92 0.083,2.878 0.096,1.542 0.286,3.077 0.561,4.6 0.06,0.332 0.128,0.662 0.196,0.993 0.495,2.4 1.198,4.764 2.136,7.056 0.676,1.652 1.466,3.267 2.371,4.834 0.452,0.784 0.933,1.555 1.442,2.313 l 3.88,5.779 c 0.306,0.456 0.629,0.896 0.962,1.325 0.12,0.154 0.246,0.301 0.369,0.452 0.215,0.264 0.433,0.526 0.658,0.779 0.166,0.186 0.336,0.368 0.507,0.548 0.185,0.195 0.371,0.386 0.562,0.574 0.211,0.208 0.424,0.415 0.642,0.614 0.135,0.124 0.273,0.243 0.411,0.363 4.272,3.728 9.761,5.83 15.475,5.912 z"
     id="path87" /></g>
	
	
	
	
	
	
	
	
	
	
	
	
	
	
	
	
	
	
	
	
	
	
	
	
	
	
	
	
	
	
	
	
	
	
	
	
</g>
</svg>
